<svg xmlns="http://www.w3.org/2000/svg" viewBox="0 0 100 125"><path d="M51.398 17.749v-9.79h-2.795v9.79c.467.047.937.086 1.398.152.46-.067.93-.105 1.397-.152zM48.602 82.251v9.79h2.795v-9.79c-.467-.047-.937-.086-1.398-.152-.46.067-.93.105-1.397.152zM28.689 12.857l-2.378 1.469 4.22 6.829a32.188 32.188 0 0 1 2.556-1.181l-4.398-7.117zM71.311 87.143l2.378-1.469-4.221-6.83c-.832.429-1.684.824-2.556 1.181l4.399 7.118zM11.692 27.749l-.663 1.23-.663 1.23 6.84 3.689a32.8 32.8 0 0 1 1.495-2.37l-7.009-3.779zM88.308 72.251l.663-1.23.663-1.23-6.84-3.689a32.8 32.8 0 0 1-1.495 2.37l7.009 3.779zM12.959 48.602H5v2.795h7.959c-.02-.464-.035-.929-.035-1.398s.015-.933.035-1.397zM87.077 50c0 .469-.016.934-.035 1.398H95v-2.795h-7.959c.02.463.036.928.036 1.397zM10.366 69.79l.663 1.23.663 1.23 7.009-3.78a32.034 32.034 0 0 1-1.495-2.37l-6.84 3.69zM89.634 30.21l-.663-1.23-.663-1.23-7.009 3.78c.532.766 1.03 1.557 1.495 2.37l6.84-3.69zM26.311 85.675l2.378 1.469 4.398-7.117a32.188 32.188 0 0 1-2.556-1.181l-4.22 6.829zM73.689 14.325l-2.378-1.469-4.398 7.117c.872.357 1.724.752 2.556 1.181l4.22-6.829zM55.295 23.755h-9.591v.087a24.132 24.132 0 0 0-1.01-.027c-13.772 0-24.976 11.82-24.976 26.347 0 14.529 11.204 26.348 24.976 26.348 1.246 0 10.6-.287 10.6-.287 13.713 0 24.869-11.769 24.869-26.235S69.008 23.755 55.295 23.755zm10.443 5.59h-5.761a24.873 24.873 0 0 0-4.194-2.782 20.948 20.948 0 0 1 9.955 2.782zm-21.044 44.37c-12.23 0-22.181-10.566-22.181-23.553 0-12.986 9.95-23.552 22.181-23.552 5.061 0 9.729 1.813 13.466 4.855l.794.676c4.839 4.324 7.921 10.796 7.921 18.021 0 12.987-9.95 23.553-22.181 23.553zm11.767-.32a24.964 24.964 0 0 0 3.831-2.677h5.289a20.938 20.938 0 0 1-9.12 2.677zm13.025-5.472h-6.361a26.539 26.539 0 0 0 3.367-4.92h7.151a23.199 23.199 0 0 1-4.157 4.92zm5.67-7.716H67.78a27.227 27.227 0 0 0 1.413-4.92h7.6a24.251 24.251 0 0 1-1.637 4.92zm2.212-10.218c0 .845-.045 1.68-.127 2.502h-7.673c.064-.768.103-1.544.103-2.33 0-.874-.043-1.737-.122-2.59h7.702c.077.796.117 1.602.117 2.418zm-8.224-5.212a27.169 27.169 0 0 0-1.465-4.92h7.518a24.24 24.24 0 0 1 1.614 4.92h-7.667zm-2.794-7.716a26.456 26.456 0 0 0-3.46-4.92h6.69a23.22 23.22 0 0 1 4.115 4.92H66.35z"/><path d="M44.694 32.632c-9.177 0-16.643 7.864-16.643 17.53 0 9.667 7.466 17.531 16.643 17.531s16.643-7.864 16.643-17.531c0-9.666-7.466-17.53-16.643-17.53zm0 32.265c-7.636 0-13.848-6.61-13.848-14.735 0-8.124 6.212-14.734 13.848-14.734s13.848 6.61 13.848 14.734c0 8.125-6.212 14.735-13.848 14.735z"/></svg>