<svg xmlns="http://www.w3.org/2000/svg" viewBox="0 0 100 125"><path d="M98 26.5c-.2-.4-1.7-3.3-2.3-5.5-.5-1.6-1.6-4.4-2.2-5.9-1.3 2.6-4.6 9.3-6.3 12 .6.2 2 .4 5.1.2l1.2-.1c1.2-.1 2.1-.1 2.8-.2 1.5-.1 1.7-.3 1.7-.4v-.1zM87.3 14.1c-1.9-.1-4.3-.2-5.3-.6-1.8-.7-8.2 0-8.9 1.4 0 0-.6 2.7-.4 5.5 0 .6-.1 1.2-.3 1.9 4.7-3.2 9.6-5.9 14.9-8.2z"/><path d="M85.9 27.6c-.1-.2-.1-.4 0-.6 1.8-2.5 6.3-11.7 7-13.2-.3-.2-.7-.4-1.1-.3-.2 0-.3 0-.5.1C84 16.4 63.2 25.2 47.9 49c0 0 .2 0 .7-.1 1.8-.1 6.6-.3 10.4 1.6 4.7 2.3 6.5 8.5 6.5 11.1 0 0 9.5-3.9 19.2-19.8 2.6-4.2 4.5-9 5.8-13.4-3.5 0-4.3-.6-4.6-.8zM29.6 34.6l.2 4.4s.9.9 1.6.1l-.3-4.1 6.3 1.5c-5.2-6.9-3.6-18.7-3.6-18.7l-4.1-.4-.1-1.6h1l.5-1.8h-1.6l-.2-1.9c0-.2-.2-.3-.4-.4-.2 0-.4.2-.4.4l.1 1.9h-1.1l.4 1.7h.7l.1 1.6-3.8-.4c-5.6 7.7-.4 16.4-.4 16.4l5.1 1.3zM9.1 41.9l-2.3 1.7c5.4-.1 3.9-.7 3.9-.7l-1.6-1zM17.5 39.9l-.3-1-6 .8-2.1-.8.2 1.4 2 .6zM11.1 38.8l3.4-1.2-.2-1-4.4 1.5z"/><path d="M34.6 37.6l.1-1-2.7-.8.2 3.9c0-.1 2 0 2.4-2.1zM46.9 28.8l-.3-1.5-7 2.3-3.4-.8.5 1.3 3 1z"/><path d="M40.7 28.3l1.2-.5-.6-2.5 6.7-7.4s-4.1-4.1-7.2-10l-3.4 1.8-.5-1.9c-.2-.5-.5-.3-.5-.3-.2 0-.3.2-.2.4l4.5 20.4zm.4-3.6L37.4 10c.7 1 3.9 6.1 3.7 14.7zM37 34l1.6 2.2s.9-.1.9-2.2v-2.1l-2.6-.5s.2 2 .2 2.3l-.1.3z"/><path d="M42.5 44.7c.9-.7 2.1-2.3 3.4-4.2 1.3-1.9 1.2-11.1 1.2-11.1l-6.8 2.2s-.1.5.1 2.1-.7 2.8-.7 2.8l-4 1.1s-.5 1.6-.9 2.1c-.2.2-2.5.8-5 1.4 1.5 2.8 2 5.8 2.2 7.2 5.3-1.5 10-3.2 10.5-3.6zM26.6 49.9c-.1-1.7-.5-5-1.6-7.6-1.4.3-2.3.5-2.3.5-2.8-.2-4.7-2.1-4.7-2.1l-6.4 1c0 .4.5 1.5 0 2-.4.5-5.3.4-5.3.4.7.4 1.7 1.2 1.7 1.2s5.2 5.8 10.4 6c1.7.1 4.8-.6 8.2-1.4zM21.1 52.1s-1.8.3-3 .4c0 0 2 5.8 9.5 8.3 0 0-1-1.9-1.2-4.6 0 0-2.9-.6-5.3-4.1zM9.7 34.6l.5 1.9 3.4-1-.1-.9zM12.6 24.8c-3 1-3 4.4-3 4.4 2-1.2 1.7-1.4 4.1-1.9 1.2-.2 2.5.6 2.5.6l1.2.3c-.6-5.1-4.8-3.4-4.8-3.4zM10.8 24.1c.1.1.2.3.3.4 1.3-.8 3-1 4.1-1 .4-2.7 1.3-5.8 1.3-5.8l-4.1-.3-.7-3.4c0-.2-.2-.4-.5-.3-.3 0-.4.3-.4.5l.6 3.1-3.5-.3c0-.1.9 4.3 2.9 7.1z"/><path d="M17.2 29.1c-.8-.3-3.5-1.2-5.9-.3-.8 1.5-2.8 2.8-2.7 4.4l5.7.4.7 3.7c.1.4.4.7.8.7.3 0 .6-.1.6-.3l.1-.5-.7-3.4 5.7.4c0-.8-2.4-3.1-4.3-5.1zM9 35l-.2-.5c-1.1.1-1.2-.5-1.2-.5-.1-.8.6-2.2.6-2.2-1.3.2-2.6 2.5-4.1 3.9-1.4 1.4-2.7 4.5-1.8 4.1.3-.1-.1.2 1.7-1.7 2.1-2.1 2-2.2 3.2-2.4C8.5 35.5 9 35 9 35zM63.7 57.9c-.1-.1-.1-.3-.2-.4v-.1c-.1-.3-.2-.5-.3-.8 0-.1-.1-.1-.1-.2-.1-.1-.1-.2-.2-.4-.1-.1-.1-.2-.2-.3-.1-.1-.1-.3-.2-.4-.1-.1-.2-.3-.2-.4 0-.1-.1-.2-.1-.2-.1-.2-.3-.4-.4-.6l-.1-.1c-.1-.2-.2-.3-.4-.5l-.1-.1c-.2-.2-.3-.4-.5-.5l-.1-.1c-.2-.2-.3-.3-.5-.4 0 0-.1 0-.1-.1-.2-.2-.4-.3-.6-.4l-.1-.1c-.2-.1-.4-.3-.7-.4-.2-.1-.5-.2-.7-.3-.1 0-.2-.1-.2-.1-.2-.1-.3-.1-.5-.2-.1 0-.2-.1-.3-.1-.2-.1-.3-.1-.5-.1-.1 0-.2 0-.3-.1H56c-.1 0-.2-.1-.4-.1-.1 0-.2 0-.2-.1-.1 0-.2 0-.4-.1h-.1H53.8c-.2 0-.4-.1-.6-.1H52.6h-.1c-1.6-.1-3 0-3.8 0h-.2c.3.6.9 1.4 1.6 2.4-.3.3-.6.5-.7.5 0 0-5.5-.5-4.9 4.6 0 0-1.2 1.6-2.7 3.5-2.6 3-7.5 2.1-8.7-1.7v-.1c-1.4-4.7-1-22-10.7-23.6-.6-.1-1.2-.1-1.7.1-.8.3-1.8.8-2.1 1.9 0 0 4.1-.8 6 2 1.8 2.8 2.4 4.7 2.9 7 .4 2.3-.5 12.8 3.3 17.5 3 3.7 6.5 4.3 9.4 4.2 0 0-7.3 4.2-12.3 2.4C23 69 16.2 76 17.1 80.4c0 0 .7.5 1.6-1.5.9-1.9 3-5 6.9-5 3.8 0 13 .5 17.8-3.1-1.8 1.5-7.1 5.9-9.7 9-3.1 3.8-8.1 9-8.1 9s-2.6 2.2 1.2 1c3.8-1.2 9.5-9 12.2-10.9 2.7-1.9 9.6-6.9 9.6-6.9s1.7 4 1 9.9c-.5 3.9-4.4 7.6-5.7 8.8-.3.3-.5.8-.4 1.2.2.5.6.8 1.9 0 2.5-1.6 9-7.1 8.4-12.5-.7-5.8.3-7.3.3-7.3s-.9 2.6 1.5 7.1c2.4 4.6.8 8-2.8 11 0 0-1.2 1.8.9.8s6.9-5.2 5.3-9.8c-1.3-4-1.4-10.4 0-14.1 1.5-.4 3.8-1.5 5.2-4.6v-.9c.3-.9 0-2.3-.5-3.7zm-11.6-2.7c.6 1.7 6.4.6 6.4.6-3 1.1-3.1 1-4.6 1.3-1.5.3-1.8-1.9-1.8-1.9zm6.2 5.5s-.9.9-2.6.8-2.4-3.1-2.4-3.1.5.3 1.4.4c.1.5.4 1.6 1.5 1.6 1.5 0 1.9-1.1 2-1.9v-.1c.5.1 1.1.3 2 .9 0 0-1.4.9-1.9 1.4z"/><path d="M24.7 41.6c-1.1-2.1-2.6-3-3.5-3.3-1.5.3-2.8.5-2.8.5-.5 2.8 4.4 3.2 4.4 3.2l1.9-.4zM29 39.4l-.2-4.2h-.7s-.1 1.3-1 1.7c-.1 0-.1.1-.2.1.6.7 1.4 1.7 2.3 3.1.1.1.2.3.2.4l1.1-.2c-.5.1-1.5-.9-1.5-.9z"/></svg>