<svg xmlns="http://www.w3.org/2000/svg" viewBox="0 0 75 93.75"><path d="M47.375 14.11l-20.602 7.617-21.539-7.961V56.64l21.047 7.777.164.062.504-.003 20.422-7.493 21.379 7.903V22.016zM25.793 62.226L7.121 55.324V16.473l18.672 6.902zm1.887-38.883l18.75-6.875v38.855l-18.75 6.93zM66.863 62.18l-18.547-6.86V16.473l18.547 6.855zm0 0"/><path d="M6.898 49.098c-.527-.078-.851-.164-.851-.164l.406-1.512c.02.008.274.07.676.133zm0 0M8.59 49.21l-.02-1.562a7.134 7.134 0 0 0 1.414-.148l.32 1.531a9.012 9.012 0 0 1-1.714.18zm3.39-.745l-.687-1.403c.41-.203.777-.457 1.098-.757l1.074 1.133a6.208 6.208 0 0 1-1.485 1.027zm2.59-2.445l-1.36-.778c.22-.379.4-.812.54-1.281l1.5.445a7.7 7.7 0 0 1-.68 1.614zm46.727-.434c-.188-.461-.383-.969-.574-1.508l1.472-.523c.184.515.367 1 .547 1.445zm-45.613-2.668l-1.48-.496c.179-.543.382-1.055.6-1.54l1.426.641c-.199.438-.382.907-.546 1.395zm44.52-.344c-.165-.504-.329-1.011-.49-1.52l1.493-.46c.156.492.316.992.48 1.488zm-19.446-.629l-.528-1.472c.395-.141.856-.348 1.364-.598l.691 1.398c-.57.282-1.086.512-1.527.672zm-2.137-.035c-.3-.164-.828-.344-1.34-.512l.496-1.484c.707.238 1.203.41 1.598.625zm-2.855-1.039a21.96 21.96 0 0 1-1.508-.625l.656-1.418c.492.227.961.418 1.398.582zm7.949-.34l-.746-1.37c.441-.243.902-.497 1.367-.763l.77 1.36c-.473.265-.942.531-1.391.773zm-26.805-.336l-1.351-.785c.293-.5.597-.965.91-1.39l1.258.925a13.56 13.56 0 0 0-.817 1.25zm42.34-.656l-.445-1.52 1.5-.437.445 1.512zm-26.457-.055c-.45-.265-.914-.562-1.383-.898l.91-1.27c.426.309.848.579 1.258.817zm13.687-.511l-.777-1.356 1.379-.781.77 1.36zm-27.808-1.176l-1.145-1.063a13.54 13.54 0 0 1 1.22-1.156l.995 1.203c-.347.293-.71.63-1.07 1.016zm11.445-.238a14.004 14.004 0 0 1-.441-.399 13.69 13.69 0 0 0-.715-.613l.965-1.227c.265.211.539.442.816.7.133.125.266.246.399.363zm19.102-.121l-.742-1.376c.535-.289 1.023-.539 1.46-.734l.645 1.422c-.406.184-.867.422-1.363.688zm9.168-.782c-.153-.3-.403-.523-.766-.687l.64-1.426c.688.312 1.2.781 1.516 1.398zm-6.438-.39l-.41-1.508a23.42 23.42 0 0 1 1.59-.371l.297 1.531c-.52.105-1.02.223-1.477.348zm-31.027-.309l-.774-1.36c.438-.245 1.079-.554 1.657-.609l.316 1.535-.176.024c-.172.016-.535.133-1.023.41zm6.84-.203a6.09 6.09 0 0 0-1.293-.52l.406-1.507a7.725 7.725 0 0 1 1.625.652zm27.144-.05l-.14-1.556c.351-.03.71-.039 1.039-.046.226 0 .453.007.668.023l-.118 1.559c-.187-.016-.382-.012-.57-.02a8.362 8.362 0 0 0-.879.04zM23.7 35.186l-.3-1.535a8.63 8.63 0 0 1 1.64-.168l.078.782-.023.78a6.6 6.6 0 0 0-1.395.142zm0 0M62.598 47.95c-.188-.184-.375-.45-.575-.805l1.364-.766c.172.309.277.426.316.465zm0 0"/><path d="M65.656 45.605L64.551 44.5l-1.918 1.922L60.71 44.5l-1.11 1.105 1.926 1.922-1.925 1.922 1.109 1.106 1.922-1.922 1.918 1.922 1.105-1.106-1.922-1.922zm0 0"/></svg>