<svg xmlns="http://www.w3.org/2000/svg" xmlns:xlink="http://www.w3.org/1999/xlink" version="1.1" x="0px" y="0px" viewBox="0 0 100 125" style="enable-background:new 0 0 100 100;" xml:space="preserve"><g><path d="M98,26.5c-0.2-0.4-1.7-3.3-2.3-5.5c-0.5-1.6-1.6-4.4-2.2-5.9c-1.3,2.6-4.6,9.3-6.3,12c0.6,0.2,2,0.4,5.1,0.2l1.2-0.1   c1.2-0.1,2.1-0.1,2.8-0.2l0,0c1.5-0.1,1.7-0.3,1.7-0.4C98,26.7,98,26.7,98,26.5z"/><path d="M87.3,14.1C85.4,14,83,13.9,82,13.5c-1.8-0.7-8.2,0-8.9,1.4c0,0-0.6,2.7-0.4,5.5c0,0.6-0.1,1.2-0.3,1.9   C77.1,19.1,82,16.4,87.3,14.1z"/><path d="M85.9,27.6c-0.1-0.2-0.1-0.4,0-0.6c1.8-2.5,6.3-11.7,7-13.2c-0.3-0.2-0.7-0.4-1.1-0.3c-0.2,0-0.3,0-0.5,0.1   C84,16.4,63.2,25.2,47.9,49c0,0,0.2,0,0.7-0.1c1.8-0.1,6.6-0.3,10.4,1.6c4.7,2.3,6.5,8.5,6.5,11.1c0,0,9.5-3.9,19.2-19.8   c2.6-4.2,4.5-9,5.8-13.4C87,28.4,86.2,27.8,85.9,27.6z"/><path d="M29.6,34.6l0.2,4.4c0,0,0.9,0.9,1.6,0.1L31.1,35l6.3,1.5c-5.2-6.9-3.6-18.7-3.6-18.7l-4.1-0.4l-0.1-1.6l1,0l0.5-1.8l-1.6,0   l-0.2-1.9c0-0.2-0.2-0.3-0.4-0.4c-0.2,0-0.4,0.2-0.4,0.4l0.1,1.9l-1.1,0l0.4,1.7l0.7,0l0.1,1.6l-3.8-0.4   c-5.6,7.7-0.4,16.4-0.4,16.4L29.6,34.6z"/><path d="M9.1,41.9l-2.3,1.7c5.4-0.1,3.9-0.7,3.9-0.7L9.1,41.9z"/><polygon points="17.5,39.9 17.2,38.9 11.2,39.7 9.1,38.9 9.3,40.3 11.3,40.9  "/><polygon points="11.1,38.8 14.5,37.6 14.3,36.6 9.9,38.1  "/><path d="M34.6,37.6l0.1-1l-2.7-0.8l0.2,3.9C32.2,39.6,34.2,39.7,34.6,37.6z"/><polygon points="46.9,28.8 46.6,27.3 39.6,29.6 36.2,28.8 36.7,30.1 39.7,31.1  "/><path d="M40.7,28.3l1.2-0.5l-0.6-2.5l6.7-7.4c0,0-4.1-4.1-7.2-10l-3.4,1.8l-0.5-1.9c-0.2-0.5-0.5-0.3-0.5-0.3   c-0.2,0-0.3,0.2-0.2,0.4L40.7,28.3z M41.1,24.7L37.4,10C38.1,11,41.3,16.1,41.1,24.7z"/><path d="M37,34l1.6,2.2c0,0,0.9-0.1,0.9-2.2c0-2.1,0-2.1,0-2.1l-2.6-0.5c0,0,0.2,2,0.2,2.3C37,34,37,34,37,34z"/><path d="M42.5,44.7c0.9-0.7,2.1-2.3,3.4-4.2c1.3-1.9,1.2-11.1,1.2-11.1l-6.8,2.2c0,0-0.1,0.5,0.1,2.1c0.2,1.6-0.7,2.8-0.7,2.8   l-4,1.1c0,0-0.5,1.6-0.9,2.1c-0.2,0.2-2.5,0.8-5,1.4c1.5,2.8,2,5.8,2.2,7.2C37.3,46.8,42,45.1,42.5,44.7z"/><path d="M26.6,49.9c-0.1-1.7-0.5-5-1.6-7.6c-1.4,0.3-2.3,0.5-2.3,0.5c-2.8-0.2-4.7-2.1-4.7-2.1l-6.4,1c0,0.4,0.5,1.5,0,2   c-0.4,0.5-5.3,0.4-5.3,0.4C7,44.5,8,45.3,8,45.3s5.2,5.8,10.4,6C20.1,51.4,23.2,50.7,26.6,49.9z"/><path d="M21.1,52.1c0,0-1.8,0.3-3,0.4c0,0,2,5.8,9.5,8.3c0,0-1-1.9-1.2-4.6C26.4,56.2,23.5,55.6,21.1,52.1z"/><polygon points="9.7,34.6 10.2,36.5 13.6,35.5 13.5,34.6  "/><path d="M12.6,24.8c-3,1-3,4.4-3,4.4c2-1.2,1.7-1.4,4.1-1.9c1.2-0.2,2.5,0.6,2.5,0.6l1.2,0.3C16.8,23.1,12.6,24.8,12.6,24.8z"/><path d="M10.8,24.1c0.1,0.1,0.2,0.3,0.3,0.4c1.3-0.8,3-1,4.1-1c0.4-2.7,1.3-5.8,1.3-5.8l-4.1-0.3l-0.7-3.4c0-0.2-0.2-0.4-0.5-0.3   c-0.3,0-0.4,0.3-0.4,0.5l0.6,3.1l-3.5-0.3C7.9,16.9,8.8,21.3,10.8,24.1z"/><path d="M17.2,29.1c-0.8-0.3-3.5-1.2-5.9-0.3c0,0,0,0,0,0c-0.8,1.5-2.8,2.8-2.7,4.4l5.7,0.4l0.7,3.7c0.1,0.4,0.4,0.7,0.8,0.7   c0.3,0,0.6-0.1,0.6-0.3c0.1-0.5,0.1-0.5,0.1-0.5l-0.7-3.4l5.7,0.4C21.5,33.4,19.1,31.1,17.2,29.1z"/><path d="M9,35l-0.2-0.5C7.7,34.6,7.6,34,7.6,34c-0.1-0.8,0.6-2.2,0.6-2.2c-1.3,0.2-2.6,2.5-4.1,3.9c-1.4,1.4-2.7,4.5-1.8,4.1   C2.6,39.7,2.2,40,4,38.1c2.1-2.1,2-2.2,3.2-2.4C8.5,35.5,9,35,9,35z"/><path d="M63.7,57.9L63.7,57.9c-0.1-0.1-0.1-0.3-0.2-0.4c0,0,0,0,0-0.1c-0.1-0.3-0.2-0.5-0.3-0.8c0-0.1-0.1-0.1-0.1-0.2   c-0.1-0.1-0.1-0.2-0.2-0.4c-0.1-0.1-0.1-0.2-0.2-0.3c-0.1-0.1-0.1-0.3-0.2-0.4c-0.1-0.1-0.2-0.3-0.2-0.4c0-0.1-0.1-0.2-0.1-0.2   c-0.1-0.2-0.3-0.4-0.4-0.6c0,0-0.1-0.1-0.1-0.1c-0.1-0.2-0.2-0.3-0.4-0.5c0,0-0.1-0.1-0.1-0.1c-0.2-0.2-0.3-0.4-0.5-0.5   c0,0-0.1-0.1-0.1-0.1c-0.2-0.2-0.3-0.3-0.5-0.4c0,0-0.1,0-0.1-0.1c-0.2-0.2-0.4-0.3-0.6-0.4c0,0-0.1-0.1-0.1-0.1   c-0.2-0.1-0.4-0.3-0.7-0.4c-0.2-0.1-0.5-0.2-0.7-0.3c-0.1,0-0.2-0.1-0.2-0.1c-0.2-0.1-0.3-0.1-0.5-0.2c-0.1,0-0.2-0.1-0.3-0.1   c-0.2-0.1-0.3-0.1-0.5-0.1c-0.1,0-0.2,0-0.3-0.1c0,0,0,0,0,0l0,0c0,0-0.1,0-0.1,0c-0.1,0-0.2-0.1-0.4-0.1c-0.1,0-0.2,0-0.2-0.1   c-0.1,0-0.2,0-0.4-0.1c0,0,0,0-0.1,0c0,0-0.1,0-0.1,0c-0.1,0-0.1,0-0.2,0c-0.1,0-0.1,0-0.2,0c-0.1,0-0.1,0-0.2,0   c-0.1,0-0.1,0-0.2,0c-0.1,0-0.1,0-0.2,0c-0.2,0-0.4-0.1-0.6-0.1c0,0-0.1,0-0.1,0c-0.1,0-0.1,0-0.2,0c-0.1,0-0.2,0-0.3,0   c0,0-0.1,0-0.1,0c0,0,0,0,0,0c-1.6-0.1-3,0-3.8,0c-0.1,0-0.2,0-0.2,0c0.3,0.6,0.9,1.4,1.6,2.4c-0.3,0.3-0.6,0.5-0.7,0.5   c0,0-5.5-0.5-4.9,4.6c0,0-1.2,1.6-2.7,3.5c-2.6,3-7.5,2.1-8.7-1.7c0,0,0-0.1,0-0.1c-1.4-4.7-1-22-10.7-23.6   c-0.6-0.1-1.2-0.1-1.7,0.1c-0.8,0.3-1.8,0.8-2.1,1.9c0,0,4.1-0.8,6,2c1.8,2.8,2.4,4.7,2.9,7c0.4,2.3-0.5,12.8,3.3,17.5   c3,3.7,6.5,4.3,9.4,4.2c0,0-7.3,4.2-12.3,2.4c-4.9-1.8-11.7,5.2-10.8,9.6c0,0,0.7,0.5,1.6-1.5c0.9-1.9,3-5,6.9-5   c3.8,0,13,0.5,17.8-3.1c-1.8,1.5-7.1,5.9-9.7,9c-3.1,3.8-8.1,9-8.1,9S23,91,26.8,89.8c3.8-1.2,9.5-9,12.2-10.9   c2.7-1.9,9.6-6.9,9.6-6.9s1.7,4,1,9.9c-0.5,3.9-4.4,7.6-5.7,8.8c-0.3,0.3-0.5,0.8-0.4,1.2c0.2,0.5,0.6,0.8,1.9,0   c2.5-1.6,9-7.1,8.4-12.5c-0.7-5.8,0.3-7.3,0.3-7.3s-0.9,2.6,1.5,7.1c2.4,4.6,0.8,8-2.8,11c0,0-1.2,1.8,0.9,0.8   c2.1-1,6.9-5.2,5.3-9.8c-1.3-4-1.4-10.4,0-14.1c1.5-0.4,3.8-1.5,5.2-4.6l0-0.9C64.5,60.7,64.2,59.3,63.7,57.9z M52.1,55.2   c0.6,1.7,6.4,0.6,6.4,0.6c-3,1.1-3.1,1-4.6,1.3C52.4,57.4,52.1,55.2,52.1,55.2z M58.3,60.7c0,0-0.9,0.9-2.6,0.8s-2.4-3.1-2.4-3.1   s0.5,0.3,1.4,0.4c0.1,0.5,0.4,1.6,1.5,1.6c1.5,0,1.9-1.1,2-1.9c0,0,0,0,0-0.1c0.5,0.1,1.1,0.3,2,0.9C60.2,59.3,58.8,60.2,58.3,60.7   z"/><path d="M24.7,41.6c-1.1-2.1-2.6-3-3.5-3.3c-1.5,0.3-2.8,0.5-2.8,0.5c-0.5,2.8,4.4,3.2,4.4,3.2L24.7,41.6z"/><path d="M29,39.4l-0.2-4.2l-0.7,0c0,0-0.1,1.3-1,1.7c-0.1,0-0.1,0.1-0.2,0.1c0.6,0.7,1.4,1.7,2.3,3.1c0.1,0.1,0.2,0.3,0.2,0.4   l1.1-0.2C30,40.4,29,39.4,29,39.4z"/></g></svg>