<svg xmlns="http://www.w3.org/2000/svg" xmlns:xlink="http://www.w3.org/1999/xlink" viewBox="0 0 75 93.75" version="1.1" x="0px" y="0px"><g><path style="" d="M 47.375 14.109375 L 26.773438 21.726562 L 5.234375 13.765625 L 5.234375 56.640625 L 26.28125 64.417969 L 26.445312 64.480469 L 26.949219 64.476562 L 47.371094 56.984375 L 68.75 64.886719 L 68.75 22.015625 Z M 25.792969 62.226562 L 7.121094 55.324219 L 7.121094 16.472656 L 25.792969 23.375 Z M 27.679688 23.34375 L 46.429688 16.46875 L 46.429688 55.324219 L 27.679688 62.253906 Z M 66.863281 62.179688 L 48.316406 55.320312 L 48.316406 16.472656 L 66.863281 23.328125 Z M 66.863281 62.179688 " stroke="none" fill-rule="nonzero" fill="rgb(0%,0%,0%)" fill-opacity="1"/><path style="" d="M 6.898438 49.097656 C 6.371094 49.019531 6.046875 48.933594 6.046875 48.933594 L 6.453125 47.421875 C 6.472656 47.429688 6.726562 47.492188 7.128906 47.554688 Z M 6.898438 49.097656 " stroke="none" fill-rule="nonzero" fill="rgb(0%,0%,0%)" fill-opacity="1"/><path style="" d="M 8.589844 49.210938 L 8.570312 47.648438 C 9.0625 47.644531 9.542969 47.59375 9.984375 47.5 L 10.304688 49.03125 C 9.761719 49.144531 9.183594 49.203125 8.589844 49.210938 Z M 11.980469 48.464844 L 11.292969 47.0625 C 11.703125 46.859375 12.070312 46.605469 12.390625 46.304688 L 13.464844 47.4375 C 13.03125 47.84375 12.53125 48.191406 11.980469 48.464844 Z M 14.570312 46.019531 L 13.210938 45.242188 C 13.429688 44.863281 13.609375 44.429688 13.75 43.960938 L 15.25 44.40625 C 15.074219 44.992188 14.847656 45.535156 14.570312 46.019531 Z M 61.296875 45.585938 C 61.109375 45.125 60.914062 44.617188 60.722656 44.078125 L 62.195312 43.554688 C 62.378906 44.070312 62.5625 44.554688 62.742188 45 Z M 15.683594 42.917969 L 14.203125 42.421875 C 14.382812 41.878906 14.585938 41.367188 14.804688 40.882812 L 16.230469 41.523438 C 16.03125 41.960938 15.847656 42.429688 15.683594 42.917969 Z M 60.203125 42.574219 C 60.039062 42.070312 59.875 41.5625 59.714844 41.054688 L 61.207031 40.59375 C 61.363281 41.085938 61.523438 41.585938 61.6875 42.082031 Z M 40.757812 41.945312 L 40.230469 40.472656 C 40.625 40.332031 41.085938 40.125 41.59375 39.875 L 42.285156 41.273438 C 41.714844 41.554688 41.199219 41.785156 40.757812 41.945312 Z M 38.621094 41.910156 C 38.320312 41.746094 37.792969 41.566406 37.28125 41.398438 L 37.777344 39.914062 C 38.484375 40.152344 38.980469 40.324219 39.375 40.539062 Z M 35.765625 40.871094 C 35.292969 40.695312 34.785156 40.488281 34.257812 40.246094 L 34.914062 38.828125 C 35.40625 39.054688 35.875 39.246094 36.3125 39.410156 Z M 43.714844 40.53125 L 42.96875 39.160156 C 43.410156 38.917969 43.871094 38.664062 44.335938 38.398438 L 45.105469 39.757812 C 44.632812 40.023438 44.164062 40.289062 43.714844 40.53125 Z M 16.910156 40.195312 L 15.558594 39.410156 C 15.851562 38.910156 16.15625 38.445312 16.46875 38.019531 L 17.726562 38.945312 C 17.445312 39.328125 17.171875 39.742188 16.910156 40.195312 Z M 59.25 39.539062 L 58.804688 38.019531 L 60.304688 37.582031 L 60.75 39.09375 Z M 32.792969 39.484375 C 32.34375 39.21875 31.878906 38.921875 31.410156 38.585938 L 32.320312 37.316406 C 32.746094 37.625 33.167969 37.894531 33.578125 38.132812 Z M 46.480469 38.972656 L 45.703125 37.617188 L 47.082031 36.835938 L 47.851562 38.195312 Z M 18.671875 37.796875 L 17.527344 36.734375 C 17.914062 36.320312 18.324219 35.929688 18.746094 35.578125 L 19.742188 36.78125 C 19.394531 37.074219 19.03125 37.410156 18.671875 37.796875 Z M 30.117188 37.558594 C 29.96875 37.429688 29.820312 37.296875 29.675781 37.160156 C 29.433594 36.9375 29.195312 36.734375 28.960938 36.546875 L 29.925781 35.320312 C 30.191406 35.53125 30.464844 35.761719 30.742188 36.019531 C 30.875 36.144531 31.007812 36.265625 31.140625 36.382812 Z M 49.21875 37.4375 L 48.476562 36.0625 C 49.011719 35.773438 49.5 35.523438 49.9375 35.328125 L 50.582031 36.75 C 50.175781 36.933594 49.714844 37.171875 49.21875 37.4375 Z M 58.386719 36.65625 C 58.234375 36.355469 57.984375 36.132812 57.621094 35.96875 L 58.261719 34.542969 C 58.949219 34.855469 59.460938 35.324219 59.777344 35.941406 Z M 51.949219 36.265625 L 51.539062 34.757812 C 52.03125 34.625 52.570312 34.496094 53.128906 34.386719 L 53.425781 35.917969 C 52.90625 36.023438 52.40625 36.140625 51.949219 36.265625 Z M 20.921875 35.957031 L 20.148438 34.597656 C 20.585938 34.351562 21.226562 34.042969 21.804688 33.988281 L 22.121094 35.523438 L 21.945312 35.546875 C 21.773438 35.5625 21.410156 35.679688 20.921875 35.957031 Z M 27.761719 35.753906 C 27.335938 35.523438 26.898438 35.351562 26.46875 35.234375 L 26.875 33.726562 C 27.421875 33.875 27.96875 34.09375 28.5 34.378906 Z M 54.90625 35.703125 L 54.765625 34.148438 C 55.117188 34.117188 55.476562 34.109375 55.804688 34.101562 C 56.03125 34.101562 56.257812 34.109375 56.472656 34.125 L 56.355469 35.683594 C 56.167969 35.667969 55.972656 35.671875 55.785156 35.664062 C 55.496094 35.660156 55.203125 35.675781 54.90625 35.703125 Z M 23.699219 35.1875 L 23.398438 33.652344 C 23.996094 33.539062 24.515625 33.484375 25.039062 33.484375 L 25.117188 34.265625 L 25.09375 35.046875 C 24.617188 35.042969 24.191406 35.089844 23.699219 35.1875 Z M 23.699219 35.1875 " stroke="none" fill-rule="nonzero" fill="rgb(0%,0%,0%)" fill-opacity="1"/><path style="" d="M 62.597656 47.949219 C 62.410156 47.765625 62.222656 47.5 62.023438 47.144531 L 63.386719 46.378906 C 63.558594 46.6875 63.664062 46.804688 63.703125 46.84375 Z M 62.597656 47.949219 " stroke="none" fill-rule="nonzero" fill="rgb(0%,0%,0%)" fill-opacity="1"/><path style="" d="M 65.65625 45.605469 L 64.550781 44.5 L 62.632812 46.421875 L 60.710938 44.5 L 59.601562 45.605469 L 61.527344 47.527344 L 59.601562 49.449219 L 60.710938 50.554688 L 62.632812 48.632812 L 64.550781 50.554688 L 65.65625 49.449219 L 63.734375 47.527344 Z M 65.65625 45.605469 " stroke="none" fill-rule="nonzero" fill="rgb(0%,0%,0%)" fill-opacity="1"/></g></svg>